<svg id="Слой_1" data-name="Слой 1" xmlns="http://www.w3.org/2000/svg" viewBox="0 0 62.66 51.27"><defs><style>.cls-1{fill:#269c74;}.cls-2{fill:#e74738;}.cls-3{fill:#166cb4;}.cls-4{fill:#a7605e;}</style></defs><path class="cls-1" d="M37.21,33.87a16.41,16.41,0,0,1-1.6,3.42c-.2.28-.38.56-.59.83s-.13.35.18.34l2.31-.05c1.47,0,3-.07,4.42,0s2.84.07,4.25.14a63.53,63.53,0,0,1,13,1.75A22.55,22.55,0,0,1,63,41.62c.11.06.32.05.3.23s-.19.19-.31.25a40.91,40.91,0,0,1-4.63,2,51.21,51.21,0,0,1-7,1.94,49.29,49.29,0,0,1-6.85,1,48.59,48.59,0,0,1-6.27,0,45.09,45.09,0,0,1-7.92-1.28,46.65,46.65,0,0,1-7.21-2.43l-2.57-1.14a1.72,1.72,0,0,0-.48-1.28,11,11,0,0,0,1.76-.67,56.38,56.38,0,0,0,9.65-8.54A7.38,7.38,0,0,0,32.77,30c1.06-1.16,2-2.44,2.93-3.68.37-.49.41-.49.7,0a9.25,9.25,0,0,1,1.07,5.58A15.86,15.86,0,0,0,37.21,33.87Z" transform="translate(-0.67 -6.37)"/><path class="cls-2" d="M20.11,40.79a1.72,1.72,0,0,1,.48,1.28c-.12.13-.28.11-.43.12A16.7,16.7,0,0,0,4.57,57c0,.2.07.5-.18.57a.84.84,0,0,1-.86-.19A8.58,8.58,0,0,1,.9,52.67a11.52,11.52,0,0,1,2.77-10A12.9,12.9,0,0,1,8.44,39.1,2.49,2.49,0,0,0,8.72,39c0-.19-.21-.23-.33-.31a16.71,16.71,0,0,1-6-21A18.22,18.22,0,0,1,13.12,7.85a3.47,3.47,0,0,1,1.1-.26,2.18,2.18,0,0,1-.92.53,17.08,17.08,0,0,0-6.54,5.71.24.24,0,0,0-.17.26v0a.18.18,0,0,0-.15.21.09.09,0,0,1,0,.07c-.17,0-.18.19-.19.34l0,0-.06.09h0a.17.17,0,0,0-.08.18h0c-.19,0-.18.2-.2.34v0c-.17.06-.16.21-.18.34v0a.53.53,0,0,0-.23.5.14.14,0,0,1,0,.07.16.16,0,0,0-.09.18h0c-.1.06-.09.16-.08.27h0c-.24.15-.22.42-.27.65a.29.29,0,0,1,0,.09.5.5,0,0,0-.14.4l0,.25a.57.57,0,0,0-.16.55.28.28,0,0,1,0,.09c-.15.1-.15.26-.18.41-.09.46-.13.94-.22,1.4a13.23,13.23,0,0,0,.07,4.07,1.88,1.88,0,0,0,.12.3c0,.08.06.19.18.16s.1-.11.12-.18c.08-.24.16-.49.23-.74.18-.71.58-1.35.72-2.07h0A1,1,0,0,0,6,21.42H6a.15.15,0,0,0,.1-.17h0a.63.63,0,0,0,.27-.52l0,0a.07.07,0,0,0,.06-.1l0-.07.07-.1h0a.13.13,0,0,0,.09-.16v0a1.09,1.09,0,0,0,.44-.65h0a.13.13,0,0,0,.1-.16h0a.08.08,0,0,0,.07-.09h0A.23.23,0,0,0,7.46,19v0a.21.21,0,0,0,.19-.24l0,0s.07,0,.06-.07l0,0a.62.62,0,0,0,.36-.44l0,0,.06-.09h0s.08,0,.07-.08h0l.08-.09h0a.28.28,0,0,0,.26-.28h0a2.56,2.56,0,0,0,.84-.83h0l.09-.09h0a.24.24,0,0,0,.18-.17h0a.21.21,0,0,0,.18-.16l0,0a.36.36,0,0,0,.34-.28h0a.28.28,0,0,0,.26-.19h0a.26.26,0,0,0,.18-.16h0a.34.34,0,0,0,.25-.17l0,0a.28.28,0,0,0,.25-.19h0c.12,0,.24,0,.27-.18h0a.16.16,0,0,0,.17-.11h0a.29.29,0,0,0,.28-.16h0c.05,0,.07,0,.07-.07l0,0a.94.94,0,0,0,.71-.38h0a1.53,1.53,0,0,0,.82-.36h0a.81.81,0,0,0,.45-.18h0a1.05,1.05,0,0,0,.46-.16h0a10,10,0,0,1,1.64-.35c-.43.27-.89.46-1.32.72s-.89.39-1.16.84h0a2.08,2.08,0,0,0-1,.83h0a.17.17,0,0,0-.19.18h0a1.62,1.62,0,0,0-.83.84h0a.18.18,0,0,0-.18.2h0a.15.15,0,0,0-.12.18h0a.46.46,0,0,0-.37.47h0c-.12,0-.17.08-.17.2h0a3.4,3.4,0,0,0-1,1.62h0a3.68,3.68,0,0,0-.83,1.76v0c-.12,0-.15.13-.19.24a16.4,16.4,0,0,0-.81,7.92.47.47,0,0,0,.14.33l.09.45a14.54,14.54,0,0,0,4,7.76.86.86,0,0,0,.67.3,9.55,9.55,0,0,1,6.88,2.52A1.82,1.82,0,0,0,20.11,40.79Z" transform="translate(-0.67 -6.37)"/><path class="cls-3" d="M4.73,18.18l0-.25c.16-.09.16-.24.14-.4a.29.29,0,0,0,0-.09c.21-.16.19-.43.27-.65h0a.27.27,0,0,0,.08-.27h0a.14.14,0,0,0,.09-.18.14.14,0,0,0,0-.07.67.67,0,0,0,.23-.5v0c.16-.06.16-.21.18-.34v0c.14-.07.16-.21.2-.34h0a.15.15,0,0,0,.08-.18h0c.05,0,.08,0,.06-.09l0,0a.44.44,0,0,0,.19-.34.09.09,0,0,0,0-.07.19.19,0,0,0,.15-.21v0a.24.24,0,0,0,.17-.26A17.08,17.08,0,0,1,13.3,8.12a2.18,2.18,0,0,0,.92-.53c.9-.25,1.8-.5,2.71-.72A18.44,18.44,0,0,1,39.45,22.22a17.85,17.85,0,0,1-1.89,11.06c-.1.2-.23.39-.35.59a15.86,15.86,0,0,1,.26-1.94,9.25,9.25,0,0,0-1.07-5.58c-.29-.52-.33-.52-.7,0-1,1.24-1.87,2.52-2.93,3.68,0-.12,0-.24.07-.36a13.7,13.7,0,0,0-1.25-9.45,13.41,13.41,0,0,0-8.54-6.83c-.12-.2-.3-.11-.47-.12l-.27-.06a4.51,4.51,0,0,0-1.48-.28,16.39,16.39,0,0,0-4.84.3,3.38,3.38,0,0,0-1.31.47h0c-.17,0-.36,0-.46.16h0a.42.42,0,0,0-.45.18h0a1.34,1.34,0,0,0-.82.36h0a2,2,0,0,0-.71.38l0,0-.07.07h0a.24.24,0,0,0-.28.16h0a.14.14,0,0,0-.17.11h0c-.12,0-.23,0-.27.18h0c-.12,0-.22.06-.25.19l0,0a.2.2,0,0,0-.25.17h0a.17.17,0,0,0-.18.16h0a.26.26,0,0,0-.26.19h0a.43.43,0,0,0-.34.28l0,0a.18.18,0,0,0-.18.16h0a.18.18,0,0,0-.18.17h0a.08.08,0,0,0-.09.09h0a2.38,2.38,0,0,0-.84.83h0a.36.36,0,0,0-.26.28h0s-.08,0-.08.09h0l-.07.08h0s-.07,0-.06.09l0,0a.6.6,0,0,0-.36.44l0,0c-.05,0-.07,0-.06.07l0,0a.26.26,0,0,0-.19.24v0c-.12.05-.2.12-.19.26h0c-.06,0-.08,0-.07.09h0c-.08,0-.1.09-.1.16h0a1.14,1.14,0,0,0-.44.65v0a.14.14,0,0,0-.09.16h0c-.06,0-.08,0-.07.1l0,.07s-.07,0-.06.1l0,0a.66.66,0,0,0-.27.52h0a.13.13,0,0,0-.1.17H6a1.38,1.38,0,0,0-.35.74h0a.69.69,0,0,0-.2.35c-.3.79-.6,1.58-.93,2.48a4.52,4.52,0,0,1-.16-.64,16.36,16.36,0,0,1-.1-3.13c.06-.81.24-1.6.35-2.41a.28.28,0,0,0,0-.09A.83.83,0,0,0,4.73,18.18Z" transform="translate(-0.67 -6.37)"/><path class="cls-4" d="M22.31,13.18A22.79,22.79,0,0,0,20,12.9a9,9,0,0,0-5.67,1.73c-.15.1-.27.26-.47.25.27-.45.76-.59,1.16-.84s.89-.45,1.32-.72a10,10,0,0,0-1.64.35A3.38,3.38,0,0,1,16,13.2a16.39,16.39,0,0,1,4.84-.3A4.51,4.51,0,0,1,22.31,13.18Z" transform="translate(-0.67 -6.37)"/><path class="cls-4" d="M4.56,18.82c-.11.81-.29,1.6-.35,2.41a16.36,16.36,0,0,0,.1,3.13,4.52,4.52,0,0,0,.16.64c.33-.9.63-1.69.93-2.48a.69.69,0,0,1,.2-.35c-.14.72-.54,1.36-.72,2.07-.07.25-.15.5-.23.74,0,.07-.07.17-.12.18s-.14-.08-.18-.16a1.88,1.88,0,0,1-.12-.3,13.23,13.23,0,0,1-.07-4.07c.09-.46.13-.94.22-1.4C4.41,19.08,4.41,18.92,4.56,18.82Z" transform="translate(-0.67 -6.37)"/><path class="cls-4" d="M9.12,21.12a21.55,21.55,0,0,0-.86,3.34,17,17,0,0,0,0,4.83c0,.1,0,.21,0,.32a.47.47,0,0,1-.14-.33,16.4,16.4,0,0,1,.81-7.92C9,21.25,9,21.16,9.12,21.12Z" transform="translate(-0.67 -6.37)"/><path class="cls-4" d="M11,17.73a13,13,0,0,1-1,1.62A3.4,3.4,0,0,1,11,17.73Z" transform="translate(-0.67 -6.37)"/><path class="cls-4" d="M10,19.34c-.26.6-.52,1.2-.83,1.76A3.68,3.68,0,0,1,10,19.34Z" transform="translate(-0.67 -6.37)"/><path class="cls-4" d="M13.84,14.87a3.14,3.14,0,0,1-1,.83A2.08,2.08,0,0,1,13.84,14.87Z" transform="translate(-0.67 -6.37)"/><path class="cls-4" d="M12.63,15.88a2.56,2.56,0,0,1-.83.84A1.62,1.62,0,0,1,12.63,15.88Z" transform="translate(-0.67 -6.37)"/><path class="cls-4" d="M8.64,17.63a2.38,2.38,0,0,1,.84-.83A2.56,2.56,0,0,1,8.64,17.63Z" transform="translate(-0.67 -6.37)"/><path class="cls-4" d="M12.91,14.4a1.34,1.34,0,0,1,.82-.36A1.53,1.53,0,0,1,12.91,14.4Z" transform="translate(-0.67 -6.37)"/><path class="cls-4" d="M5.61,22.16A1.38,1.38,0,0,1,6,21.42,1,1,0,0,1,5.61,22.16Z" transform="translate(-0.67 -6.37)"/><path class="cls-4" d="M6.64,20.23a1.14,1.14,0,0,1,.44-.65A1.09,1.09,0,0,1,6.64,20.23Z" transform="translate(-0.67 -6.37)"/><path class="cls-4" d="M12.19,14.78a2,2,0,0,1,.71-.38A.94.94,0,0,1,12.19,14.78Z" transform="translate(-0.67 -6.37)"/><path class="cls-4" d="M5.21,16.79c-.08.22-.06.49-.27.65C5,17.21,5,16.94,5.21,16.79Z" transform="translate(-0.67 -6.37)"/><path class="cls-4" d="M11.51,17.07a.87.87,0,0,1-.37.47A.46.46,0,0,1,11.51,17.07Z" transform="translate(-0.67 -6.37)"/><path class="cls-4" d="M6.08,21.24a.66.66,0,0,1,.27-.52A.63.63,0,0,1,6.08,21.24Z" transform="translate(-0.67 -6.37)"/><path class="cls-4" d="M7.75,18.66a.6.6,0,0,1,.36-.44A.62.62,0,0,1,7.75,18.66Z" transform="translate(-0.67 -6.37)"/><path class="cls-4" d="M5.65,15.76a.67.67,0,0,1-.23.5A.53.53,0,0,1,5.65,15.76Z" transform="translate(-0.67 -6.37)"/><path class="cls-4" d="M10,16.35a.43.43,0,0,1,.34-.28A.36.36,0,0,1,10,16.35Z" transform="translate(-0.67 -6.37)"/><path class="cls-4" d="M4.73,18.18a.83.83,0,0,1-.16.55A.57.57,0,0,1,4.73,18.18Z" transform="translate(-0.67 -6.37)"/><path class="cls-4" d="M8.38,17.91a.36.36,0,0,1,.26-.28A.28.28,0,0,1,8.38,17.91Z" transform="translate(-0.67 -6.37)"/><path class="cls-4" d="M14.2,13.84c.1-.19.29-.16.46-.16A1.05,1.05,0,0,1,14.2,13.84Z" transform="translate(-0.67 -6.37)"/><path class="cls-4" d="M13.74,14a.42.42,0,0,1,.45-.18A.81.81,0,0,1,13.74,14Z" transform="translate(-0.67 -6.37)"/><path class="cls-4" d="M6.41,14.39a.44.44,0,0,1-.19.34C6.23,14.58,6.24,14.44,6.41,14.39Z" transform="translate(-0.67 -6.37)"/><path class="cls-4" d="M4.92,17.53c0,.16,0,.31-.14.4A.5.5,0,0,1,4.92,17.53Z" transform="translate(-0.67 -6.37)"/><path class="cls-4" d="M6.05,15c0,.13-.06.27-.2.34C5.87,15.24,5.86,15.08,6.05,15Z" transform="translate(-0.67 -6.37)"/><path class="cls-4" d="M5.84,15.4c0,.13,0,.28-.18.34C5.68,15.61,5.67,15.46,5.84,15.4Z" transform="translate(-0.67 -6.37)"/><path class="cls-4" d="M6.76,13.83a.24.24,0,0,1-.17.26A.24.24,0,0,1,6.76,13.83Z" transform="translate(-0.67 -6.37)"/><path class="cls-4" d="M11.34,15.33c0-.14.15-.17.27-.18C11.58,15.3,11.46,15.32,11.34,15.33Z" transform="translate(-0.67 -6.37)"/><path class="cls-4" d="M7.46,19a.26.26,0,0,1,.19-.24A.21.21,0,0,1,7.46,19Z" transform="translate(-0.67 -6.37)"/><path class="cls-4" d="M7.27,19.3c0-.14.07-.21.19-.26A.23.23,0,0,1,7.27,19.3Z" transform="translate(-0.67 -6.37)"/><path class="cls-4" d="M11.79,15a.24.24,0,0,1,.28-.16A.29.29,0,0,1,11.79,15Z" transform="translate(-0.67 -6.37)"/><path class="cls-4" d="M6.59,14.11a.19.19,0,0,1-.15.21A.18.18,0,0,1,6.59,14.11Z" transform="translate(-0.67 -6.37)"/><path class="cls-4" d="M12.82,15.7a.17.17,0,0,1-.19.18A.17.17,0,0,1,12.82,15.7Z" transform="translate(-0.67 -6.37)"/><path class="cls-4" d="M10.33,16.07a.26.26,0,0,1,.26-.19A.28.28,0,0,1,10.33,16.07Z" transform="translate(-0.67 -6.37)"/><path class="cls-4" d="M11.08,15.52c0-.13.13-.17.25-.19A.28.28,0,0,1,11.08,15.52Z" transform="translate(-0.67 -6.37)"/><path class="cls-4" d="M11.8,16.71a.18.18,0,0,1-.18.2A.18.18,0,0,1,11.8,16.71Z" transform="translate(-0.67 -6.37)"/><path class="cls-4" d="M10.81,15.71a.2.2,0,0,1,.25-.17A.34.34,0,0,1,10.81,15.71Z" transform="translate(-0.67 -6.37)"/><path class="cls-4" d="M11.14,17.54a.2.2,0,0,1-.17.2C11,17.62,11,17.54,11.14,17.54Z" transform="translate(-0.67 -6.37)"/><path class="cls-4" d="M9.58,16.71a.18.18,0,0,1,.18-.17A.24.24,0,0,1,9.58,16.71Z" transform="translate(-0.67 -6.37)"/><path class="cls-4" d="M5.3,16.52a.27.27,0,0,1-.08.27C5.21,16.68,5.2,16.58,5.3,16.52Z" transform="translate(-0.67 -6.37)"/><path class="cls-4" d="M9.78,16.53a.18.18,0,0,1,.18-.16A.21.21,0,0,1,9.78,16.53Z" transform="translate(-0.67 -6.37)"/><path class="cls-4" d="M10.6,15.88a.17.17,0,0,1,.18-.16A.26.26,0,0,1,10.6,15.88Z" transform="translate(-0.67 -6.37)"/><path class="cls-4" d="M7.08,19.57c0-.07,0-.14.1-.16A.13.13,0,0,1,7.08,19.57Z" transform="translate(-0.67 -6.37)"/><path class="cls-4" d="M5.4,16.33a.14.14,0,0,1-.09.18A.16.16,0,0,1,5.4,16.33Z" transform="translate(-0.67 -6.37)"/><path class="cls-4" d="M11.62,15.15a.14.14,0,0,1,.17-.11A.16.16,0,0,1,11.62,15.15Z" transform="translate(-0.67 -6.37)"/><path class="cls-4" d="M6.54,20.41a.14.14,0,0,1,.09-.16A.13.13,0,0,1,6.54,20.41Z" transform="translate(-0.67 -6.37)"/><path class="cls-4" d="M6,21.42a.13.13,0,0,1,.1-.17A.15.15,0,0,1,6,21.42Z" transform="translate(-0.67 -6.37)"/><path class="cls-4" d="M6.13,14.85a.15.15,0,0,1-.08.18A.17.17,0,0,1,6.13,14.85Z" transform="translate(-0.67 -6.37)"/><path class="cls-4" d="M11.63,16.9a.15.15,0,0,1-.12.18A.15.15,0,0,1,11.63,16.9Z" transform="translate(-0.67 -6.37)"/><path class="cls-4" d="M12.1,14.87l.07-.07S12.15,14.88,12.1,14.87Z" transform="translate(-0.67 -6.37)"/><path class="cls-4" d="M9.48,16.8a.08.08,0,0,1,.09-.09Z" transform="translate(-0.67 -6.37)"/><path class="cls-4" d="M6.2,14.75c0,.06,0,.08-.06.09Z" transform="translate(-0.67 -6.37)"/><path class="cls-4" d="M7.2,19.4c0-.06,0-.09.07-.09A.08.08,0,0,1,7.2,19.4Z" transform="translate(-0.67 -6.37)"/><path class="cls-4" d="M7.67,18.75c0-.05,0-.08.06-.07S7.72,18.75,7.67,18.75Z" transform="translate(-0.67 -6.37)"/><path class="cls-4" d="M6.37,20.69c0-.06,0-.08.06-.1A.07.07,0,0,1,6.37,20.69Z" transform="translate(-0.67 -6.37)"/><path class="cls-4" d="M8.29,18c0-.06,0-.09.08-.09Z" transform="translate(-0.67 -6.37)"/><path class="cls-4" d="M8.21,18.1,8.28,18C8.29,18.07,8.26,18.1,8.21,18.1Z" transform="translate(-0.67 -6.37)"/><path class="cls-4" d="M8.13,18.2q0-.09.06-.09Z" transform="translate(-0.67 -6.37)"/><path class="cls-4" d="M6.46,20.52c0-.06,0-.09.07-.1Z" transform="translate(-0.67 -6.37)"/><path class="cls-4" d="M23.05,13.36l-.47-.12C22.75,13.25,22.93,13.16,23.05,13.36Z" transform="translate(-0.67 -6.37)"/></svg>